# xmcd
#
# Track frame offsets: 
#        150
#        17737
#        32647
#        48568
#        64851
#        80003
#        95244
#        114589
#        131681
#        145447
#
# Disc length: 2156 seconds
#
# Revision: 0
# Processed by: cddbd v1.5.2PL0 Copyright (c) Steve Scherf et al.
# Submitted via: ExactAudioCopy v0.99pb5
#
DISCID=92086a0a
DTITLE=Aaron Lines - Sunday Afternoon
DYEAR=2009
DGENRE=Country
TTITLE0=The Trouble With California
TTITLE1=Sand
TTITLE2=I Haven't Even Heard You Cry
TTITLE3=You'd Still Love Me
TTITLE4=Sunday Afternoon
TTITLE5=These Are Those Days
TTITLE6=I Love New York
TTITLE7=Unloving You
TTITLE8=Making Love in The Afternoon
TTITLE9=Everything I Know About Life (The Blackhorse Song)
EXTD=
EXTT0=
EXTT1=
EXTT2=
EXTT3=
EXTT4=
EXTT5=
EXTT6=
EXTT7=
EXTT8=
EXTT9=
PLAYORDER=
